<svg xmlns="http://www.w3.org/2000/svg" viewBox="0 0 32 32" fill="none">
  <rect width="32" height="32" rx="8" fill="#25D366"/>
  <path d="M16 8c-4.42 0-8 3.58-8 8 0 1.49.41 2.88 1.12 4.07L8 24l4.18-1.1A7.94 7.94 0 0 0 16 24c4.42 0 8-3.58 8-8s-3.58-8-8-8Z" fill="#fff"/>
  <path d="M13 13.5c.2-.5.6-.5.9-.5h.6c.2 0 .4.1.5.4l.6 1.4c.1.2 0 .4-.1.5l-.5.6c-.1.1-.1.3 0 .4.4.8 1.2 1.6 2 2 .1.1.3.1.4 0l.6-.5c.1-.1.3-.2.5-.1l1.4.6c.3.1.4.3.4.5v.6c0 .3 0 .7-.5.9-.5.2-1.8.4-3.4-1.2-1.6-1.6-1.8-2.9-1.6-3.4Z" fill="#25D366"/>
</svg>
